<?xml version="1.0" encoding="utf-8"?>
<!-- Generator: Adobe Illustrator 27.1.1, SVG Export Plug-In . SVG Version: 6.00 Build 0)  -->
<svg version="1.1" id="Layer_1" xmlns="http://www.w3.org/2000/svg" xmlns:xlink="http://www.w3.org/1999/xlink" x="0px" y="0px"
	 viewBox="0 0 684.8 276.7" style="enable-background:new 0 0 684.8 276.7;" xml:space="preserve">
<style type="text/css">
	.st0{fill:#FFFFFF;}
	.st1{fill:#DE160E;}
	.st2{fill:#0094D7;}
	.st3{fill:none;stroke:#0094D7;stroke-width:2.9374;stroke-miterlimit:10;}
</style>
<path class="st0" d="M334,163.6v82.6c0,1.7-1.3,3-3,3l0,0c-1.7,0-3-1.3-3-3v-82.6c0-1.7,1.3-3,3-3l0,0
	C332.7,160.7,334,162,334,163.6z M357.7,160.7L357.7,160.7c-1.6,0-3,1.3-3,3v4.7c0,1.6,1.3,3,3,3l0,0c1.7,0,3-1.3,3-3v-4.7
	C360.7,162,359.3,160.7,357.7,160.7z M357.7,186.1L357.7,186.1c-1.6,0-3,1.3-3,3v57.1c0,1.6,1.3,3,3,3l0,0c1.7,0,3-1.3,3-3v-57.1
	C360.7,187.5,359.3,186.1,357.7,186.1z M430.7,207.1v38.4c0,21-9.1,31.2-27.9,31.2c-17.1,0-22.6-9.2-24.5-15.5
	c-0.2-0.6,0.3-1.3,0.9-1.3l4.1-0.2c0.5,0,0.9,0.3,1,0.7c2.7,7.4,9.4,11.6,18.7,11.6c19.3,0,21.8-14.8,21.8-27.8
	c0-3.6-7.3,0.8-8.6,1.5c-4.6,2.5-10.9,3.7-16.1,3.3c-16.2-1.1-24-16.6-24-31.3c0-19.8,10.8-33.2,26.9-33.2c5.2,0,11.3,0.5,17.2,3.9
	C425.9,191.7,430.7,200.4,430.7,207.1z M425.2,216.4c0-12.5-2.4-26.9-21.1-26.9c-13.2,0-21.4,10.7-21.4,27.8
	c0,15.7,8.6,26.7,21,26.7C423,244.1,425.2,228.3,425.2,216.4z M567.3,213.6c0,0.2,0,0.4,0,0.7c0,1.8-1.5,3.3-3.4,3.3h-41.2
	c-0.9,0-1.6,0.3-2.2,1c-0.6,0.6-0.9,1.5-0.9,2.3c0.7,15.2,9,25,21.2,25c10.5,0,14.6-5,17.1-10c0.4-0.8,1.2-1.3,2.1-1.3
	c1.2,0.1,2.8,0.2,3.9,0.3c0.6,0,1,0.6,0.7,1.2c-3.1,7-9.8,14.8-24.2,14.8c-19.9,0-27-16.8-27-32.5c0-16.3,7.3-33.7,27.8-33.7
	C560.5,184.6,567.3,200.2,567.3,213.6z M561.1,210.3c-0.9-13-8.5-21.1-20-21.1c-6,0-11.8,2.4-15.6,7.3c-1.9,2.4-3.3,5.2-4.4,8.1
	c-0.9,2.4-2.5,7.8,2.2,7.8c0,0,34.6,0,34.6,0C558.8,212.4,561.2,212.8,561.1,210.3z M582.7,202.7V248c0,0.7,0.5,1.2,1.2,1.2h3.6
	c0.7,0,1.3-0.6,1.3-1.3v-30.5c0-15.2,7.8-24.7,21.5-26.4c0.5-0.1,0.9-0.5,0.9-0.9c0-1.1,0-3.1,0-4.4c0-0.6-0.5-1-1.1-1
	c-10.4,0.9-16.7,8.1-19.6,12.3c-0.6,0.8-1.8,0.4-1.8-0.6c0-2.6,0-6.5,0-8.6c0-0.8-0.7-1.5-1.5-1.5c-1.1,0-2.5,0-3.4,0
	c-0.5,0-1,0.5-1,1V202.7z M643.6,213.1L643.6,213.1c-12.8-3.1-16.6-6-16.6-12.7c0-3.4,1.5-11.3,14.9-11.3c11.1,0,15,6.4,16.5,10.6
	c0.1,0.4,0.4,0.6,0.8,0.6l4.2-0.1c0.5,0,1-0.5,0.8-1.1c-2.3-9.1-10.4-14.5-22-14.5c-15.7,0-21.3,8.9-21.3,16.6
	c0,7.9,3.3,13,20.9,17.2c13.7,3.3,17.9,6.8,17.9,14.9c0,4.9-2.1,13-16.5,13c-9.2,0-15.5-4-18.3-11.7c-0.2-0.5-0.6-0.8-1.1-0.8
	l-4,0.1c-0.6,0-1.1,0.6-0.9,1.2c2.8,10.2,11.3,15.7,24.1,15.7c14,0,23.1-7.2,23.1-18.3C666,223.7,662.4,217.6,643.6,213.1z
	 M474,184.6l-0.8,0.1l-0.9-0.1c-12,0.4-23.9,7.7-23.9,23.5v39.8c0,0.6,0.5,1.1,1.1,1.1h3.8c0.6,0,1.1-0.5,1.1-1.1v-38.5
	c0-11.9,7.4-19.5,18.8-19.5c11.4,0,18.8,7.7,18.8,19.5v38.5c0,0.6,0.5,1.1,1.1,1.1h3.8c0.6,0,1.1-0.5,1.1-1.1v-39.8
	C497.9,192.2,486,184.9,474,184.6z M273.2,164l35.8,83.1c0.5,1-0.3,2.2-1.4,2.2c-1,0-2,0-2.9,0c-0.9,0-1.8-0.6-2.1-1.5l-1.8-4.9
	c-0.8-2.1-1.7-4.1-2.9-6c-5.6-8.5-15.1-13.6-25.4-13.6c-11.1,0-21.3,6.1-26.7,15.8c-0.7,1.3-1.2,2.6-1.7,4l-1.7,4.7
	c-0.3,0.9-1.1,1.5-2.1,1.5c-0.7,0-1.5,0-2.3,0c-1.1,0-1.9-1.2-1.4-2.2l34.2-83.1C271.1,162.9,272.7,162.9,273.2,164z M272.3,175.5
	c-0.1-0.3-0.6-0.3-0.8,0l-21.2,49.8l3.4-2.1c11.2-6.9,25.9-7,37.2-0.2l3.4,2L272.3,175.5z"/>
<path class="st1" d="M69.5,21.4c8.3,2.7,15.1,7.8,20.2,15.1c4.1,5.9,7,12.3,8.5,19.2c1.5,6.9,2.3,13.4,2.3,19.6
	c0,15.8-3.2,29.1-9.5,40.1c-8.6,14.8-21.9,22.1-39.8,22.1H0V18.8h51.1C58.5,18.9,64.6,19.8,69.5,21.4 M24.1,39.4v77.4h22.9
	c11.7,0,19.9-5.8,24.5-17.3c2.5-6.3,3.8-13.9,3.8-22.6c0-12.1-1.9-21.3-5.7-27.8c-3.8-6.5-11.3-9.7-22.6-9.7H24.1z M167.8,51.5
	c6.1,2.7,11.2,7.1,15.2,13c3.6,5.2,5.9,11.3,7,18.1c0.6,4,0.9,9.8,0.8,17.4h-63.9c0.3,8.8,3.4,15,9.2,18.5c3.5,2.2,7.7,3.3,12.6,3.3
	c5.2,0,9.5-1.3,12.7-4c1.8-1.4,3.4-3.5,4.7-6h23.4c-0.6,5.2-3.4,10.5-8.5,15.9c-7.9,8.5-18.9,12.8-33,12.8c-11.7,0-22-3.6-30.9-10.8
	c-8.9-7.2-13.4-18.9-13.4-35.1c0-15.2,4-26.9,12.1-35c8.1-8.1,18.5-12.2,31.4-12.2C154.8,47.4,161.6,48.8,167.8,51.5 M133.4,71.3
	c-3.2,3.3-5.3,7.9-6.1,13.6h39.5c-0.4-6.1-2.5-10.7-6.1-13.9c-3.7-3.2-8.2-4.7-13.6-4.7C141.2,66.3,136.7,68,133.4,71.3 M266.4,54.8
	c-5.7-4.8-13.1-7.1-22.2-7.1c-7.2,0-13.2,1.8-17.9,5.3c-2.6,2-5.4,5.2-8.3,9.7V49.9h-22.2v87.6h22.9V90c0-5.4,0.7-9.9,2.2-13.4
	c2.9-6.6,8.2-9.9,15.9-9.9c6.3,0,10.5,2.3,12.8,6.8c1.2,2.5,1.8,6,1.8,10.6v53.3l23.5,0V78.4C275,67.4,272.1,59.5,266.4,54.8
	 M289.7,66.9v54c0,5.5,1.3,9.5,3.9,12.2c4,4.1,11.4,6,22.2,5.6l10.9-0.4v-17.1c-0.8,0.1-1.5,0.1-2.3,0.1c-0.8,0-1.5,0-2.2,0
	c-4.7,0-7.5-0.4-8.4-1.3c-0.9-0.9-1.4-3.1-1.4-6.7V66.9h14.2V50.5h-14.2V26.1h-22.7v24.5h-12.2v16.3H289.7z"/>
<path class="st2" d="M351.2,31.2c9.6-9.8,21.7-14.7,36.5-14.7c19.7,0,34.2,6.5,43.3,19.6c5,7.4,7.7,14.7,8.1,22.1h-24.8
	c-1.6-5.7-3.6-10-6.1-12.9c-4.4-5.2-11-7.7-19.6-7.7c-8.8,0-15.8,3.6-20.9,10.9c-5.1,7.3-7.6,17.6-7.6,30.9
	c0,13.3,2.7,23.3,8.1,29.9c5.4,6.6,12.2,9.9,20.5,9.9c8.5,0,15-2.9,19.5-8.5c2.5-3.1,4.5-7.6,6.1-13.8h24.6
	c-2.1,12.9-7.6,23.4-16.3,31.6c-8.7,8.1-19.9,12.2-33.6,12.2c-16.9,0-30.1-5.5-39.8-16.4c-9.7-11-14.5-26.1-14.5-45.2
	C334.8,58.4,340.2,42.4,351.2,31.2 M474.1,85.1c-8.9,1.1-15.7,3-20.3,5.6c-8.4,4.8-12.6,12.6-12.6,23.4c0,8.3,2.6,14.8,7.8,19.3
	c5.2,4.5,11.8,6.8,19.8,6.8c6.3,0,11.9-1.4,16.9-4.3c4.1-2.4,7.8-5.3,11-8.8c0.2,2,0.4,3.8,0.6,5.3c0.3,1.6,0.8,3.2,1.4,5h24.9v-3.4
	c-1.5-0.7-2.6-1.6-3.4-2.7c-0.8-1.1-1.2-3.1-1.4-6.1c-0.1-4-0.2-7.4-0.2-10.1V74.9c0-10.6-3.8-17.8-11.2-21.6
	c-7.5-3.8-16.1-5.7-25.7-5.7c-14.8,0-25.3,3.9-31.4,11.6c-3.8,4.9-6,11.2-6.5,18.9h22.1c0.5-3.4,1.6-6.1,3.3-8c2.3-2.7,6.2-4,11.7-4
	c4.9,0,8.6,0.7,11.1,2c2.5,1.4,3.8,3.9,3.8,7.5c0,2.9-1.7,5.1-5,6.5c-1.8,0.8-4.9,1.5-9.2,2L474.1,85.1z M496,103.4
	c-0.2,7.7-2.4,12.9-6.6,15.9c-4.2,2.9-8.8,4.4-13.8,4.4c-3.2,0-5.8-0.9-8.1-2.6c-2.2-1.7-3.3-4.6-3.3-8.5c0-4.4,1.8-7.6,5.4-9.7
	c2.1-1.2,5.6-2.3,10.5-3.1l5.2-1c2.6-0.5,4.7-1,6.2-1.6c1.5-0.6,3-1.3,4.5-2.2V103.4z M577.7,47.7c-0.3,0-0.7,0-1.1,0
	c-6.9,0-12.4,1.8-16.7,5.4c-2.6,2.1-5.7,6.1-9.3,12V49.7h-21.9v87.7h23.1V95.5c0-7,0.9-12.2,2.6-15.6c3.2-6,9.4-9,18.6-9
	c0.7,0,1.6,0,2.7,0.1c1.1,0.1,2.4,0.2,3.9,0.3V47.8C578.7,47.8,578,47.7,577.7,47.7 M643.7,51.5c-6.1-2.7-13-4.1-20.6-4.1
	c-12.9,0-23.3,4-31.4,12.2c-8.1,8.1-12.1,19.8-12.1,35c0,16.2,4.5,27.9,13.4,35.1c8.9,7.2,19.2,10.8,30.9,10.8
	c14.1,0,25.1-4.3,33-12.8c5.1-5.4,7.9-10.7,8.5-15.9H642c-1.4,2.6-2.9,4.6-4.7,6c-3.3,2.7-7.5,4-12.7,4c-4.9,0-9.1-1.1-12.7-3.3
	c-5.8-3.5-8.8-9.7-9.2-18.5h63.9c0.1-7.6-0.1-13.4-0.8-17.4c-1.1-6.9-3.4-12.9-7-18.1C654.9,58.6,649.8,54.3,643.7,51.5 M609.4,71.3
	c3.2-3.3,7.8-5,13.7-5c5.4,0,9.9,1.6,13.6,4.7c3.7,3.2,5.7,7.8,6.1,13.9h-39.5C604.1,79.2,606.1,74.7,609.4,71.3"/>
<path class="st2" d="M214.2,205.1c-42.3,2.1-61,2.1-103.4,0c0-28.5,23.1-51.7,51.7-51.7C191.1,153.5,214.2,176.6,214.2,205.1z
	 M162.6,267.2c28.5,0,51.7-23.1,51.7-51.7c-42.3-2.1-61-2.1-103.4,0C110.9,244,134,267.2,162.6,267.2z"/>
<path class="st1" d="M103.4,205.1c-42.3,2.1-61,2.1-103.4,0c0-28.5,23.1-51.7,51.7-51.7C80.2,153.5,103.4,176.6,103.4,205.1z
	 M51.7,267.2c28.5,0,51.7-23.1,51.7-51.7c-42.3-2.1-61-2.1-103.4,0C0,244,23.1,267.2,51.7,267.2z"/>
<g>
	<path class="st2" d="M650.4,36.8V10.8c1.6,0,4,0,7.2,0c3.2,0,5,0,5.4,0c2.1,0.1,3.7,0.6,5.1,1.3c2.3,1.3,3.5,3.3,3.5,6.2
		c0,2.2-0.6,3.8-1.8,4.7c-1.2,1-2.7,1.5-4.5,1.7c1.6,0.3,2.9,0.8,3.7,1.5c1.5,1.2,2.3,3.2,2.3,5.8v2.3c0,0.2,0,0.5,0,0.7
		c0,0.3,0.1,0.5,0.2,0.8l0.2,0.7h-6.5c-0.2-0.8-0.4-2-0.4-3.6c-0.1-1.6-0.2-2.6-0.4-3.2c-0.3-0.9-1-1.6-1.9-1.9
		c-0.5-0.2-1.3-0.4-2.3-0.4l-1.5-0.1h-1.4v9.2H650.4z M662.7,16c-0.9-0.4-2.2-0.5-3.9-0.5h-1.7v7.5h2.7c1.6,0,2.8-0.3,3.7-0.9
		c0.9-0.6,1.3-1.7,1.3-3.1C664.8,17.5,664.1,16.5,662.7,16"/>
	<circle class="st3" cx="661" cy="23.8" r="22.3"/>
</g>
<g>
</g>
<g>
</g>
<g>
</g>
<g>
</g>
<g>
</g>
<g>
</g>
<g>
</g>
<g>
</g>
<g>
</g>
<g>
</g>
<g>
</g>
<g>
</g>
<g>
</g>
<g>
</g>
<g>
</g>
</svg>
