<?xml version="1.0" encoding="utf-8"?>
<!-- Generator: Adobe Illustrator 27.1.1, SVG Export Plug-In . SVG Version: 6.00 Build 0)  -->
<svg version="1.1" id="Layer_1" xmlns="http://www.w3.org/2000/svg" xmlns:xlink="http://www.w3.org/1999/xlink" x="0px" y="0px"
	 viewBox="0 0 538 276" style="enable-background:new 0 0 538 276;" xml:space="preserve">
<style type="text/css">
	.st0{opacity:0.85;fill:#0D9BD7;enable-background:new    ;}
	.st1{fill:none;}
</style>
<path class="st0" d="M0,9.2c0,35,7,69.7,20.5,102.1s33.3,61.8,58.3,86.6s54.6,44.4,87.3,57.8C198.7,269.1,233.7,276,269,276
	s70.3-6.9,102.9-20.3c32.6-13.4,62.3-33.1,87.3-57.8s44.8-54.2,58.3-86.6S538,44.2,538,9.2c0,0-163.8-9.2-269-9.2S0,9.2,0,9.2z"/>
<path class="st1" d="M0,9.2c0,35,7,69.7,20.5,102.1s33.3,61.8,58.3,86.6s54.6,44.4,87.3,57.8C198.7,269.1,233.7,276,269,276
	s70.3-6.9,102.9-20.3c32.6-13.4,62.3-33.1,87.3-57.8c25-24.8,44.8-54.2,58.3-86.6S538,44.2,538,9.2c0,0-163.8-9.2-269-9.2
	S0,9.2,0,9.2z"/>
</svg>
