<svg xmlns="http://www.w3.org/2000/svg" xmlns:xlink="http://www.w3.org/1999/xlink">

  <style>
    :root {
            --grey:#999999;
        }
    </style>

  <defs>
  </defs>
  <symbol xmlns="http://www.w3.org/2000/svg" viewBox="0 0 32 32" id="360">
    <path fill="var(--grey)" d="M 13.59375 4.40625 C 10.894531 5.304688 9 7.699219 9 10.5 C 9 11.5 9.289063 12.507813 9.6875 13.40625 C 8.6875 13.40625 7.710938 13.6875 6.8125 14.1875 C 4.414063 15.585938 3.210938 18.414063 3.8125 21.3125 L 5.8125 20.90625 C 5.414063 18.90625 6.210938 16.90625 7.8125 15.90625 C 9.914063 14.707031 12.789063 15.601563 14.1875 18 C 14.886719 19.199219 15.113281 20.511719 14.8125 21.8125 C 14.511719 23.011719 13.8125 23.992188 12.8125 24.59375 C 11.210938 25.492188 9 25.210938 7.5 23.8125 L 6.1875 25.3125 C 7.488281 26.511719 9.210938 27.09375 10.8125 27.09375 C 11.914063 27.09375 12.90625 26.8125 13.90625 26.3125 C 14.804688 25.8125 15.5 25.085938 16 24.1875 C 16.5 25.085938 17.195313 25.8125 18.09375 26.3125 C 18.992188 26.8125 20.085938 27.09375 21.1875 27.09375 C 22.789063 27.09375 24.511719 26.511719 25.8125 25.3125 L 24.5 23.8125 C 23 25.210938 20.789063 25.492188 19.1875 24.59375 C 18.1875 23.992188 17.488281 23.011719 17.1875 21.8125 C 16.886719 20.511719 17.113281 19.199219 17.8125 18 C 19.210938 15.601563 21.988281 14.707031 24.1875 15.90625 C 25.789063 16.804688 26.585938 18.804688 26.1875 20.90625 L 28.1875 21.3125 C 28.6875 18.414063 27.492188 15.585938 25.09375 14.1875 C 24.195313 13.6875 23.1875 13.40625 22.1875 13.40625 C 22.6875 12.507813 22.90625 11.601563 22.90625 10.5 C 22.90625 7.699219 20.988281 5.304688 18.1875 4.40625 L 17.59375 6.3125 C 19.59375 6.914063 20.90625 8.601563 20.90625 10.5 C 20.90625 13 18.707031 15 15.90625 15 C 13.105469 15 10.90625 13 10.90625 10.5 C 10.90625 8.601563 12.1875 6.914063 14.1875 6.3125 Z M 16 10 C 14.898438 10 13.898438 10.1875 13 10.6875 C 13.101563 11.386719 13.398438 12.007813 14 12.40625 C 14.601563 12.105469 15.304688 12 15.90625 12 C 16.507813 12 17.210938 12.105469 17.8125 12.40625 C 18.414063 12.007813 18.8125 11.386719 18.8125 10.6875 C 18.113281 10.1875 17.101563 10 16 10 Z M 16 16 C 16.601563 16 17 16.398438 17 17 C 17 17.601563 16.601563 18 16 18 C 15.398438 18 15 17.601563 15 17 C 15 16.398438 15.398438 16 16 16 Z M 9.96875 17.3125 C 9.632813 17.289063 9.300781 17.351563 9 17.5 C 9.199219 19.601563 10.300781 21.488281 12 22.6875 C 12.5 22.386719 12.804688 21.914063 12.90625 21.3125 L 12.90625 20.90625 C 11.90625 20.105469 11.199219 18.992188 11 17.59375 C 10.648438 17.445313 10.304688 17.335938 9.96875 17.3125 Z M 22.09375 17.40625 C 21.695313 17.40625 21.300781 17.488281 21 17.6875 C 20.800781 18.988281 20.101563 20.199219 19 21 L 19 21.40625 C 19.101563 22.007813 19.507813 22.511719 19.90625 22.8125 C 21.707031 21.613281 22.800781 19.695313 23 17.59375 C 22.699219 17.492188 22.394531 17.40625 22.09375 17.40625 Z"></path>
  </symbol>
  <symbol xmlns="http://www.w3.org/2000/svg" id="braces_1" viewBox="0 0 32 32"><path fill="var(--grey)" d="M 6 5 L 6 12 L 8 12 L 8 7 L 15 7 C 19.962 7 24 11.038 24 16 C 24 20.962 19.962 25 15 25 L 6 25 L 6 27 L 15 27 C 21.065 27 26 22.065 26 16 C 26 9.935 21.065 5 15 5 L 6 5 z"/>
  </symbol>
  <symbol xmlns="http://www.w3.org/2000/svg" id="why_us" viewBox="0 0 32 32"><path fill="var(--grey)" d="M 16 3 C 8.832 3 3 8.832 3 16 C 3 23.168 8.832 29 16 29 C 23.168 29 29 23.168 29 16 C 29 8.832 23.168 3 16 3 z M 16 5 C 22.065 5 27 9.935 27 16 C 27 22.065 22.065 27 16 27 C 9.935 27 5 22.065 5 16 C 5 9.935 9.935 5 16 5 z M 9.0800781 17 C 9.5680781 20.387 12.481 23 16 23 C 19.519 23 22.431922 20.387 22.919922 17 L 20.898438 17 C 20.433438 19.279 18.415 21 16 21 C 13.585 21 11.566563 19.279 11.101562 17 L 9.0800781 17 z"/></symbol>
  <symbol xmlns="http://www.w3.org/2000/svg" viewBox="0 0 32 32" id="aligner">
    <path fill="var(--grey)" d="M 16 4 C 9.382813 4 4 9.382813 4 16 C 4 22.617188 9.382813 28 16 28 C 22.617188 28 28 22.617188 28 16 C 28 9.382813 22.617188 4 16 4 Z M 16 6 C 21.535156 6 26 10.464844 26 16 C 26 21.535156 21.535156 26 16 26 C 10.464844 26 6 21.535156 6 16 C 6 10.464844 10.464844 6 16 6 Z M 12 11 L 12 21 L 14 21 L 14 11 Z M 18 11 L 18 21 L 20 21 L 20 11 Z"></path>
  </symbol>
  <symbol xmlns="http://www.w3.org/2000/svg" viewBox="0 0 32 32" id="appreciation">
    <path fill="var(--grey)" d="M 16.6875 3 L 16.375 3.28125 L 9.59375 10 L 5 10 L 5 26 L 21.84375 26 C 23.253906 26 24.484375 25.003906 24.78125 23.625 L 26.9375 13.625 C 27.332031 11.777344 25.886719 10 24 10 L 18.25 10 L 18.4375 9.25 C 18.640625 9.09375 18.769531 9.027344 19.0625 8.625 C 19.53125 7.984375 20 6.992188 20 5.65625 C 20 4.230469 18.710938 3 17.09375 3 Z M 17.40625 5.09375 C 17.828125 5.175781 18 5.347656 18 5.65625 C 18 6.558594 17.726563 7.117188 17.46875 7.46875 C 17.210938 7.820313 17.03125 7.90625 17.03125 7.90625 L 16.6875 8.09375 L 16.5625 8.5 L 15.96875 10.75 L 15.65625 12 L 24 12 C 24.660156 12 25.105469 12.574219 24.96875 13.21875 L 22.84375 23.21875 C 22.742188 23.6875 22.320313 24 21.84375 24 L 11 24 L 11 11.40625 Z M 7 12 L 9 12 L 9 24 L 7 24 Z"></path>
  </symbol>
  <symbol xmlns="http://www.w3.org/2000/svg" viewBox="0 0 32 32" id="braces-vs">
    <path fill="var(--grey)" d="M 22.357422 3.8632812 L 16.189453 15 L 28.525391 15 L 22.357422 3.8632812 z M 22.357422 7.9902344 L 25.130859 13 L 19.583984 13 L 22.357422 7.9902344 z M 9 16 C 5.691 16 3 18.691 3 22 C 3 25.309 5.691 28 9 28 C 12.309 28 15 25.309 15 22 C 15 18.691 12.309 16 9 16 z M 17 17 L 17 28 L 28 28 L 28 17 L 17 17 z M 9 18 C 11.206 18 13 19.794 13 22 C 13 24.206 11.206 26 9 26 C 6.794 26 5 24.206 5 22 C 5 19.794 6.794 18 9 18 z M 19 19 L 26 19 L 26 26 L 19 26 L 19 19 z"></path>
  </symbol>
  <symbol xmlns="http://www.w3.org/2000/svg" viewBox="0 0 32 32" id="certificate-solid">
    <path fill="var(--grey)" d="M 16 3 C 15.375 3 14.753906 3.210938 14.21875 3.59375 L 12.5625 4.75 L 10.65625 5 L 10.625 5 L 10.59375 5.03125 C 9.320313 5.316406 8.316406 6.320313 8.03125 7.59375 L 8 7.625 L 8 7.65625 L 7.75 9.59375 L 6.59375 11.09375 L 6.5625 11.125 L 6.5625 11.15625 C 5.863281 12.273438 5.832031 13.714844 6.59375 14.78125 L 7.78125 16.4375 L 8.09375 18.15625 L 4.875 23.0625 L 3.84375 24.59375 L 8.625 24.59375 L 9.78125 27.28125 L 10.5 29 L 11.53125 27.4375 L 14.6875 22.6875 C 15.535156 23.035156 16.492188 23.066406 17.3125 22.6875 L 20.46875 27.4375 L 21.5 29 L 22.21875 27.28125 L 23.375 24.59375 L 28.15625 24.59375 L 27.125 23.0625 L 24 18.3125 L 24.25 16.4375 L 25.40625 14.78125 L 25.4375 14.75 L 25.4375 14.71875 C 26.136719 13.601563 26.167969 12.191406 25.40625 11.125 L 24.25 9.46875 L 23.875 7.59375 L 23.90625 7.59375 C 23.902344 7.570313 23.878906 7.554688 23.875 7.53125 C 23.695313 6.222656 22.660156 5.160156 21.34375 5 L 21.3125 5 L 19.4375 4.75 L 17.78125 3.59375 C 17.246094 3.210938 16.625 3 16 3 Z M 16 5.03125 C 16.230469 5.03125 16.457031 5.101563 16.625 5.21875 L 18.40625 6.5 L 18.625 6.65625 L 18.875 6.6875 L 21.0625 7 L 21.09375 7 C 21.542969 7.050781 21.855469 7.363281 21.90625 7.8125 L 21.90625 7.875 L 22.3125 10.09375 L 22.34375 10.3125 L 22.5 10.5 L 23.78125 12.28125 C 24.019531 12.613281 24.050781 13.175781 23.75 13.65625 L 22.34375 15.625 L 22.3125 15.875 L 22 18.0625 L 22 18.09375 C 21.980469 18.257813 21.925781 18.410156 21.84375 18.53125 L 21.78125 18.5625 L 21.78125 18.59375 C 21.636719 18.765625 21.4375 18.878906 21.1875 18.90625 L 21.125 18.90625 L 18.84375 19.3125 L 18.59375 19.34375 L 18.40625 19.5 L 16.625 20.78125 C 16.292969 21.019531 15.699219 21.050781 15.21875 20.75 L 13.59375 19.5 L 13.40625 19.34375 L 13.125 19.3125 L 10.9375 19 L 10.90625 19 C 10.597656 18.964844 10.359375 18.804688 10.21875 18.5625 C 10.15625 18.453125 10.109375 18.324219 10.09375 18.1875 L 10.09375 18.125 L 9.6875 15.84375 L 9.65625 15.59375 L 9.5 15.40625 L 8.21875 13.625 C 7.980469 13.292969 7.949219 12.699219 8.25 12.21875 L 9.5 10.59375 L 9.65625 10.40625 L 9.6875 10.125 L 9.96875 8.03125 C 9.972656 8.015625 9.996094 8.015625 10 8 C 10.125 7.511719 10.511719 7.125 11 7 C 11.015625 6.996094 11.015625 6.972656 11.03125 6.96875 L 13.125 6.6875 L 13.375 6.65625 L 13.59375 6.5 L 15.375 5.21875 C 15.542969 5.101563 15.769531 5.03125 16 5.03125 Z M 22.90625 20.25 L 24.4375 22.59375 L 22.03125 22.59375 L 21.78125 23.21875 L 21.09375 24.8125 L 18.96875 21.5625 L 19.4375 21.21875 L 21.40625 20.875 L 21.40625 20.90625 C 21.429688 20.902344 21.445313 20.878906 21.46875 20.875 C 22.007813 20.800781 22.496094 20.574219 22.90625 20.25 Z M 9.09375 20.28125 C 9.519531 20.664063 10.0625 20.929688 10.65625 21 C 10.667969 21 10.675781 21 10.6875 21 L 12.59375 21.25 L 13.03125 21.59375 L 10.90625 24.8125 L 10.21875 23.21875 L 9.96875 22.59375 L 7.5625 22.59375 Z"></path>
  </symbol>
  <symbol xmlns="http://www.w3.org/2000/svg" viewBox="0 0 32 32" id="comment">
    <path fill="var(--grey)" d="M 3 6 L 3 26 L 12.585938 26 L 16 29.414063 L 19.414063 26 L 29 26 L 29 6 Z M 5 8 L 27 8 L 27 24 L 18.585938 24 L 16 26.585938 L 13.414063 24 L 5 24 Z M 9 11 L 9 13 L 23 13 L 23 11 Z M 9 15 L 9 17 L 23 17 L 23 15 Z M 9 19 L 9 21 L 19 21 L 19 19 Z"></path>
  </symbol>
  <symbol xmlns="http://www.w3.org/2000/svg" viewBox="0 0 32 32" id="contact">
    <path fill="var(--grey)" d="M 3 8 L 3 26 L 29 26 L 29 8 Z M 7.3125 10 L 24.6875 10 L 16 15.78125 Z M 5 10.875 L 15.4375 17.84375 L 16 18.1875 L 16.5625 17.84375 L 27 10.875 L 27 24 L 5 24 Z"></path>
  </symbol>
  <symbol xmlns="http://www.w3.org/2000/svg" viewBox="0 0 32 32" id="home-solid">
    <path fill="var(--grey)" d="M 16 2.59375 L 15.28125 3.28125 L 2.28125 16.28125 L 3.71875 17.71875 L 5 16.4375 L 5 28 L 14 28 L 14 18 L 18 18 L 18 28 L 27 28 L 27 16.4375 L 28.28125 17.71875 L 29.71875 16.28125 L 16.71875 3.28125 Z M 16 5.4375 L 25 14.4375 L 25 26 L 20 26 L 20 16 L 12 16 L 12 26 L 7 26 L 7 14.4375 Z"></path>
  </symbol>
  <symbol xmlns="http://www.w3.org/2000/svg" viewBox="0 0 32 32" id="life-ring">
    <path fill="var(--grey)" d="M 16 4 C 9.382813 4 4 9.382813 4 16 C 4 22.617188 9.382813 28 16 28 C 22.617188 28 28 22.617188 28 16 C 28 9.382813 22.617188 4 16 4 Z M 16 6 C 16.335938 6 16.671875 6.03125 17 6.0625 L 17 9.09375 C 16.671875 9.046875 16.339844 9 16 9 C 15.660156 9 15.328125 9.046875 15 9.09375 L 15 6.0625 C 15.328125 6.03125 15.664063 6 16 6 Z M 13 6.4375 L 13 9.6875 C 11.546875 10.382813 10.378906 11.546875 9.6875 13 L 6.46875 13 C 7.441406 9.875 9.882813 7.414063 13 6.4375 Z M 19 6.4375 C 22.113281 7.414063 24.585938 9.886719 25.5625 13 L 22.3125 13 C 21.621094 11.546875 20.453125 10.378906 19 9.6875 Z M 16 11 C 18.773438 11 21 13.226563 21 16 C 21 18.773438 18.773438 21 16 21 C 13.226563 21 11 18.773438 11 16 C 11 13.226563 13.226563 11 16 11 Z M 6.0625 15 L 9.0625 15 C 9.015625 15.324219 9 15.664063 9 16 C 9 16.339844 9.046875 16.671875 9.09375 17 L 6.0625 17 C 6.03125 16.671875 6 16.335938 6 16 C 6 15.664063 6.03125 15.328125 6.0625 15 Z M 22.90625 15 L 25.9375 15 C 25.96875 15.328125 26 15.664063 26 16 C 26 16.335938 25.96875 16.671875 25.9375 17 L 22.90625 17 C 22.953125 16.671875 23 16.339844 23 16 C 23 15.660156 22.953125 15.328125 22.90625 15 Z M 6.4375 19 L 9.6875 19 C 10.378906 20.453125 11.546875 21.621094 13 22.3125 L 13 25.5625 C 9.886719 24.585938 7.414063 22.113281 6.4375 19 Z M 22.3125 19 L 25.5625 19 C 24.585938 22.113281 22.113281 24.585938 19 25.5625 L 19 22.3125 C 20.453125 21.621094 21.621094 20.453125 22.3125 19 Z M 15 22.90625 C 15.328125 22.953125 15.660156 23 16 23 C 16.339844 23 16.671875 22.953125 17 22.90625 L 17 25.9375 C 16.671875 25.96875 16.335938 26 16 26 C 15.664063 26 15.328125 25.96875 15 25.9375 Z"></path>
  </symbol>
  <symbol xmlns="http://www.w3.org/2000/svg" viewBox="0 0 32 32" id="link-solid">
    <path fill="var(--grey)" d="M 21.75 4 C 20.078125 4 18.492188 4.660156 17.3125 5.84375 L 15.84375 7.3125 C 14.660156 8.496094 14 10.078125 14 11.75 C 14 12.542969 14.152344 13.316406 14.4375 14.03125 L 16.0625 12.40625 C 15.859375 11.109375 16.253906 9.714844 17.25 8.71875 L 18.71875 7.25 C 19.523438 6.445313 20.613281 6 21.75 6 C 22.886719 6 23.945313 6.445313 24.75 7.25 C 26.410156 8.910156 26.410156 11.621094 24.75 13.28125 L 23.28125 14.75 C 22.476563 15.554688 21.386719 16 20.25 16 C 20.027344 16 19.808594 15.976563 19.59375 15.9375 L 17.96875 17.5625 C 18.683594 17.847656 19.457031 18 20.25 18 C 21.921875 18 23.507813 17.339844 24.6875 16.15625 L 26.15625 14.6875 C 27.339844 13.503906 28 11.921875 28 10.25 C 28 8.578125 27.339844 7.027344 26.15625 5.84375 C 24.976563 4.660156 23.421875 4 21.75 4 Z M 19.28125 11.28125 L 11.28125 19.28125 L 12.71875 20.71875 L 20.71875 12.71875 Z M 11.75 14 C 10.078125 14 8.492188 14.660156 7.3125 15.84375 L 5.84375 17.3125 C 4.660156 18.496094 4 20.078125 4 21.75 C 4 23.421875 4.660156 24.972656 5.84375 26.15625 C 7.023438 27.339844 8.578125 28 10.25 28 C 11.921875 28 13.507813 27.339844 14.6875 26.15625 L 16.15625 24.6875 C 17.339844 23.503906 18 21.921875 18 20.25 C 18 19.457031 17.847656 18.683594 17.5625 17.96875 L 15.9375 19.59375 C 16.140625 20.890625 15.746094 22.285156 14.75 23.28125 L 13.28125 24.75 C 12.476563 25.554688 11.386719 26 10.25 26 C 9.113281 26 8.054688 25.554688 7.25 24.75 C 5.589844 23.089844 5.589844 20.378906 7.25 18.71875 L 8.71875 17.25 C 9.523438 16.445313 10.613281 16 11.75 16 C 11.972656 16 12.191406 16.023438 12.40625 16.0625 L 14.03125 14.4375 C 13.316406 14.152344 12.542969 14 11.75 14 Z"></path>
  </symbol>
  <symbol xmlns="http://www.w3.org/2000/svg" viewBox="0 0 32 32" id="microsoft">
    <path fill="var(--grey)" d="M 5 5 L 5 27 L 27 27 L 27 5 L 5 5 z M 7 7 L 15 7 L 15 15 L 7 15 L 7 7 z M 17 7 L 25 7 L 25 15 L 17 15 L 17 7 z M 7 17 L 15 17 L 15 25 L 7 25 L 7 17 z M 17 17 L 25 17 L 25 25 L 17 25 L 17 17 z"></path>
  </symbol>
  <symbol xmlns="http://www.w3.org/2000/svg" viewBox="0 0 32 32" id="mobile-alt-solid">
    <path fill="var(--grey)" d="M 11 4 C 9.355469 4 8 5.355469 8 7 L 8 25 C 8 26.644531 9.355469 28 11 28 L 21 28 C 22.644531 28 24 26.644531 24 25 L 24 7 C 24 5.355469 22.644531 4 21 4 Z M 11 6 L 21 6 C 21.554688 6 22 6.445313 22 7 L 22 25 C 22 25.554688 21.554688 26 21 26 L 11 26 C 10.445313 26 10 25.554688 10 25 L 10 7 C 10 6.445313 10.445313 6 11 6 Z M 16 23 C 15.449219 23 15 23.449219 15 24 C 15 24.550781 15.449219 25 16 25 C 16.550781 25 17 24.550781 17 24 C 17 23.449219 16.550781 23 16 23 Z"></path>
  </symbol>
  <symbol xmlns="http://www.w3.org/2000/svg" viewBox="0 0 32 32" id="news">
    <path fill="var(--grey)" d="M 7 2 L 7 10 L 15 10 L 15 2 L 7 2 z M 17 2 L 17 10 L 25 10 L 25 2 L 17 2 z M 9 4 L 13 4 L 13 8 L 9 8 L 9 4 z M 19 4 L 23 4 L 23 8 L 19 8 L 19 4 z M 7 12 L 7 20 L 15 20 L 15 12 L 7 12 z M 17 12 L 17 20 L 25 20 L 25 12 L 17 12 z M 9 14 L 13 14 L 13 18 L 9 18 L 9 14 z M 19 14 L 23 14 L 23 18 L 19 18 L 19 14 z M 7 22 L 7 30 L 15 30 L 15 22 L 7 22 z M 17 22 L 17 30 L 25 30 L 25 22 L 17 22 z M 9 24 L 13 24 L 13 28 L 9 28 L 9 24 z M 19 24 L 23 24 L 23 28 L 19 28 L 19 24 z"></path>
  </symbol>
  <symbol xmlns="http://www.w3.org/2000/svg" viewBox="0 0 32 32" id="paper-plane">
    <path fill="var(--grey)" d="M 3.59375 5.34375 L 4.03125 7.21875 L 5.96875 16 L 4.03125 24.78125 L 3.59375 26.65625 L 5.375 25.9375 L 27.375 16.9375 L 29.65625 16 L 27.375 15.0625 L 5.375 6.0625 Z M 6.375 8.65625 L 21.90625 15 L 7.78125 15 Z M 7.78125 17 L 21.90625 17 L 6.375 23.34375 Z"></path>
  </symbol>
  <symbol xmlns="http://www.w3.org/2000/svg" viewBox="0 0 32 32" id="poll-h-solid">
    <path fill="var(--grey)" d="M 5 5 L 5 27 L 27 27 L 27 5 L 5 5 z M 7 7 L 25 7 L 25 25 L 7 25 L 7 7 z M 10 10 L 10 12 L 18 12 L 18 10 L 10 10 z M 10 15 L 10 17 L 22 17 L 22 15 L 10 15 z M 10 20 L 10 22 L 16 22 L 16 20 L 10 20 z"></path>
  </symbol>
  <symbol xmlns="http://www.w3.org/2000/svg" viewBox="0 0 32 32" id="quote-left-solid">
    <path fill="var(--grey)" d="M 10 8 C 6.699219 8 4 10.699219 4 14 L 4 24 L 14 24 L 14 14 L 6 14 C 6 11.78125 7.78125 10 10 10 Z M 24 8 C 20.699219 8 18 10.699219 18 14 L 18 24 L 28 24 L 28 14 L 20 14 C 20 11.78125 21.78125 10 24 10 Z M 6 16 L 12 16 L 12 22 L 6 22 Z M 20 16 L 26 16 L 26 22 L 20 22 Z"></path>
  </symbol>
  <symbol xmlns="http://www.w3.org/2000/svg" viewBox="0 0 32 32" id="quote-right-solid">
    <path fill="var(--grey)" d="M 4 8 L 4 18 L 12 18 C 12 20.21875 10.21875 22 8 22 L 8 24 C 11.300781 24 14 21.300781 14 18 L 14 8 Z M 18 8 L 18 18 L 26 18 C 26 20.21875 24.21875 22 22 22 L 22 24 C 25.300781 24 28 21.300781 28 18 L 28 8 Z M 6 10 L 12 10 L 12 16 L 6 16 Z M 20 10 L 26 10 L 26 16 L 20 16 Z"></path>
  </symbol>
  <symbol xmlns="http://www.w3.org/2000/svg" viewBox="0 0 32 32" id="record-solid">
    <path fill="var(--grey)" d="M 16 4 C 9.382813 4 4 9.382813 4 16 C 4 22.617188 9.382813 28 16 28 C 22.617188 28 28 22.617188 28 16 C 28 9.382813 22.617188 4 16 4 Z M 16 6 C 21.535156 6 26 10.464844 26 16 C 26 21.535156 21.535156 26 16 26 C 10.464844 26 6 21.535156 6 16 C 6 10.464844 10.464844 6 16 6 Z M 21.53125 9.0625 L 19.625 10.9375 L 21.0625 12.375 L 22.9375 10.46875 Z M 16 11 C 13.25 11 11 13.25 11 16 C 11 18.75 13.25 21 16 21 C 18.75 21 21 18.75 21 16 C 21 13.25 18.75 11 16 11 Z M 16 13 C 17.667969 13 19 14.332031 19 16 C 19 17.667969 17.667969 19 16 19 C 14.332031 19 13 17.667969 13 16 C 13 14.332031 14.332031 13 16 13 Z M 16 15 C 15.449219 15 15 15.449219 15 16 C 15 16.550781 15.449219 17 16 17 C 16.550781 17 17 16.550781 17 16 C 17 15.449219 16.550781 15 16 15 Z M 10.9375 19.625 L 9.0625 21.53125 L 10.46875 22.9375 L 12.375 21.0625 Z"></path>
  </symbol>
  <symbol xmlns="http://www.w3.org/2000/svg" viewBox="0 0 32 32" id="reel">
    <path fill="var(--grey)" d="M 16 6 C 12.234375 6 8.90625 6.390625 6.875 6.6875 C 5.195313 6.933594 3.839844 8.199219 3.53125 9.875 C 3.269531 11.300781 3 13.386719 3 16 C 3 18.613281 3.269531 20.699219 3.53125 22.125 C 3.839844 23.800781 5.195313 25.070313 6.875 25.3125 C 8.914063 25.609375 12.253906 26 16 26 C 19.746094 26 23.085938 25.609375 25.125 25.3125 C 26.804688 25.070313 28.160156 23.800781 28.46875 22.125 C 28.730469 20.695313 29 18.605469 29 16 C 29 13.394531 28.734375 11.304688 28.46875 9.875 C 28.160156 8.199219 26.804688 6.933594 25.125 6.6875 C 23.09375 6.390625 19.765625 6 16 6 Z M 16 8 C 19.632813 8 22.878906 8.371094 24.84375 8.65625 C 25.6875 8.78125 26.347656 9.417969 26.5 10.25 C 26.742188 11.570313 27 13.527344 27 16 C 27 18.46875 26.742188 20.429688 26.5 21.75 C 26.347656 22.582031 25.691406 23.222656 24.84375 23.34375 C 22.871094 23.628906 19.609375 24 16 24 C 12.390625 24 9.125 23.628906 7.15625 23.34375 C 6.3125 23.222656 5.652344 22.582031 5.5 21.75 C 5.257813 20.429688 5 18.476563 5 16 C 5 13.519531 5.257813 11.570313 5.5 10.25 C 5.652344 9.417969 6.308594 8.78125 7.15625 8.65625 C 9.117188 8.371094 12.367188 8 16 8 Z M 13 10.28125 L 13 21.71875 L 14.5 20.875 L 21.5 16.875 L 23 16 L 21.5 15.125 L 14.5 11.125 Z M 15 13.71875 L 18.96875 16 L 15 18.28125 Z"></path>
  </symbol>
  <symbol xmlns="http://www.w3.org/2000/svg" viewBox="0 0 32 32" id="steps">
    <path fill="var(--grey)" d="M 5 5 L 5 11 L 24 11 L 24 5 L 5 5 z M 7 7 L 22 7 L 22 9 L 7 9 L 7 7 z M 9 13 L 9 19 L 28 19 L 28 13 L 9 13 z M 11 15 L 26 15 L 26 17 L 11 17 L 11 15 z M 5 21 L 5 27 L 24 27 L 24 21 L 5 21 z M 7 23 L 22 23 L 22 25 L 7 25 L 7 23 z"></path>
  </symbol>
  <symbol xmlns="http://www.w3.org/2000/svg" viewBox="0 0 32 32" id="why-us">
    <path fill="var(--grey)" d="M 3 6 L 3 26 L 12.585938 26 L 16 29.414063 L 19.414063 26 L 29 26 L 29 6 Z M 5 8 L 27 8 L 27 24 L 18.585938 24 L 16 26.585938 L 13.414063 24 L 5 24 Z M 9 11 L 9 13 L 23 13 L 23 11 Z M 9 15 L 9 17 L 23 17 L 23 15 Z M 9 19 L 9 21 L 19 21 L 19 19 Z"></path>
  </symbol>
  <symbol viewBox="0 0 512 512" id="facebook" xmlns="http://www.w3.org/2000/svg">
  <path d="M504 256C504 119 393 8 256 8S8 119 8 256c0 123.78 90.69 226.38 209.25 245V327.69h-63V256h63v-54.64c0-62.15 37-96.48 93.67-96.48 27.14 0 55.52 4.84 55.52 4.84v61h-31.28c-30.8 0-40.41 19.12-40.41 38.73V256h68.78l-11 71.69h-57.78V501C413.31 482.38 504 379.78 504 256z"/>
  </symbol>
  <symbol viewBox="0 0 512 512" id="twitter" xmlns="http://www.w3.org/2000/svg">
  <path d="M459.37 151.716c.325 4.548.325 9.097.325 13.645 0 138.72-105.583 298.558-298.558 298.558-59.452 0-114.68-17.219-161.137-47.106 8.447.974 16.568 1.299 25.34 1.299 49.055 0 94.213-16.568 130.274-44.832-46.132-.975-84.792-31.188-98.112-72.772 6.498.974 12.995 1.624 19.818 1.624 9.421 0 18.843-1.3 27.614-3.573-48.081-9.747-84.143-51.98-84.143-102.985v-1.299c13.969 7.797 30.214 12.67 47.431 13.319-28.264-18.843-46.781-51.005-46.781-87.391 0-19.492 5.197-37.36 14.294-52.954 51.655 63.675 129.3 105.258 216.365 109.807-1.624-7.797-2.599-15.918-2.599-24.04 0-57.828 46.782-104.934 104.934-104.934 30.213 0 57.502 12.67 76.67 33.137 23.715-4.548 46.456-13.32 66.599-25.34-7.798 24.366-24.366 44.833-46.132 57.827 21.117-2.273 41.584-8.122 60.426-16.243-14.292 20.791-32.161 39.308-52.628 54.253z"/>
  </symbol>
  <symbol viewBox="0 0 448 512" id="instagram" xmlns="http://www.w3.org/2000/svg">
  <path d="M224.1 141c-63.6 0-114.9 51.3-114.9 114.9s51.3 114.9 114.9 114.9S339 319.5 339 255.9 287.7 141 224.1 141zm0 189.6c-41.1 0-74.7-33.5-74.7-74.7s33.5-74.7 74.7-74.7 74.7 33.5 74.7 74.7-33.6 74.7-74.7 74.7zm146.4-194.3c0 14.9-12 26.8-26.8 26.8-14.9 0-26.8-12-26.8-26.8s12-26.8 26.8-26.8 26.8 12 26.8 26.8zm76.1 27.2c-1.7-35.9-9.9-67.7-36.2-93.9-26.2-26.2-58-34.4-93.9-36.2-37-2.1-147.9-2.1-184.9 0-35.8 1.7-67.6 9.9-93.9 36.1s-34.4 58-36.2 93.9c-2.1 37-2.1 147.9 0 184.9 1.7 35.9 9.9 67.7 36.2 93.9s58 34.4 93.9 36.2c37 2.1 147.9 2.1 184.9 0 35.9-1.7 67.7-9.9 93.9-36.2 26.2-26.2 34.4-58 36.2-93.9 2.1-37 2.1-147.8 0-184.8zM398.8 388c-7.8 19.6-22.9 34.7-42.6 42.6-29.5 11.7-99.5 9-132.1 9s-102.7 2.6-132.1-9c-19.6-7.8-34.7-22.9-42.6-42.6-11.7-29.5-9-99.5-9-132.1s-2.6-102.7 9-132.1c7.8-19.6 22.9-34.7 42.6-42.6 29.5-11.7 99.5-9 132.1-9s102.7-2.6 132.1 9c19.6 7.8 34.7 22.9 42.6 42.6 11.7 29.5 9 99.5 9 132.1s2.7 102.7-9 132.1z"/>
  </symbol>
  <symbol viewBox="0 0 496 512" id="pinterest" xmlns="http://www.w3.org/2000/svg">
  <path d="M496 256c0 137-111 248-248 248-25.6 0-50.2-3.9-73.4-11.1 10.1-16.5 25.2-43.5 30.8-65 3-11.6 15.4-59 15.4-59 8.1 15.4 31.7 28.5 56.8 28.5 74.8 0 128.7-68.8 128.7-154.3 0-81.9-66.9-143.2-152.9-143.2-107 0-163.9 71.8-163.9 150.1 0 36.4 19.4 81.7 50.3 96.1 4.7 2.2 7.2 1.2 8.3-3.3.8-3.4 5-20.3 6.9-28.1.6-2.5.3-4.7-1.7-7.1-10.1-12.5-18.3-35.3-18.3-56.6 0-54.7 41.4-107.6 112-107.6 60.9 0 103.6 41.5 103.6 100.9 0 67.1-33.9 113.6-78 113.6-24.3 0-42.6-20.1-36.7-44.8 7-29.5 20.5-61.3 20.5-82.6 0-19-10.2-34.9-31.4-34.9-24.9 0-44.9 25.7-44.9 60.2 0 22 7.4 36.8 7.4 36.8s-24.5 103.8-29 123.2c-5 21.4-3 51.6-.9 71.2C65.4 450.9 0 361.1 0 256 0 119 111 8 248 8s248 111 248 248z"/>
  </symbol>
  <symbol viewBox="0 0 576 512" id="youtube" xmlns="http://www.w3.org/2000/svg">
  <path d="M549.655 124.083c-6.281-23.65-24.787-42.276-48.284-48.597C458.781 64 288 64 288 64S117.22 64 74.629 75.486c-23.497 6.322-42.003 24.947-48.284 48.597-11.412 42.867-11.412 132.305-11.412 132.305s0 89.438 11.412 132.305c6.281 23.65 24.787 41.5 48.284 47.821C117.22 448 288 448 288 448s170.78 0 213.371-11.486c23.497-6.321 42.003-24.171 48.284-47.821 11.412-42.867 11.412-132.305 11.412-132.305s0-89.438-11.412-132.305zm-317.51 213.508V175.185l142.739 81.205-142.739 81.201z"/>
  </symbol>
  <symbol viewBox="0 0 512 512" id="envelope" xmlns="http://www.w3.org/2000/svg">
  <path d="M48 64C21.5 64 0 85.5 0 112c0 15.1 7.1 29.3 19.2 38.4l217.6 163.2c11.4 8.5 27 8.5 38.4 0l217.6-163.2c12.1-9.1 19.2-23.3 19.2-38.4 0-26.5-21.5-48-48-48H48zM0 176v208c0 35.3 28.7 64 64 64h384c35.3 0 64-28.7 64-64V176L294.4 339.2a63.9 63.9 0 0 1-76.8 0L0 176z"/>
  </symbol>
  <symbol viewBox="0 0 448 512" id="whatsapp" xmlns="http://www.w3.org/2000/svg">
  <path d="M380.9 97.1C339 55.1 283.2 32 223.9 32c-122.4 0-222 99.6-222 222 0 39.1 10.2 77.3 29.6 111L0 480l117.7-30.9c32.4 17.7 68.9 27 106.1 27h.1c122.3 0 224.1-99.6 224.1-222 0-59.3-25.2-115-67.1-157zm-157 341.6c-33.2 0-65.7-8.9-94-25.7l-6.7-4-69.8 18.3L72 359.2l-4.4-7c-18.5-29.4-28.2-63.3-28.2-98.2 0-101.7 82.8-184.5 184.6-184.5 49.3 0 95.6 19.2 130.4 54.1 34.8 34.9 56.2 81.2 56.1 130.5 0 101.8-84.9 184.6-186.6 184.6zm101.2-138.2c-5.5-2.8-32.8-16.2-37.9-18-5.1-1.9-8.8-2.8-12.5 2.8-3.7 5.6-14.3 18-17.6 21.8-3.2 3.7-6.5 4.2-12 1.4-32.6-16.3-54-29.1-75.5-66-5.7-9.8 5.7-9.1 16.3-30.3 1.8-3.7.9-6.9-.5-9.7-1.4-2.8-12.5-30.1-17.1-41.2-4.5-10.8-9.1-9.3-12.5-9.5-3.2-.2-6.9-.2-10.6-.2-3.7 0-9.7 1.4-14.8 6.9-5.1 5.6-19.4 19-19.4 46.3 0 27.3 19.9 53.7 22.6 57.4 2.8 3.7 39.1 59.7 94.8 83.8 35.2 15.2 49 16.5 66.6 13.9 10.7-1.6 32.8-13.4 37.4-26.4 4.6-13 4.6-24.1 3.2-26.4-1.3-2.5-5-3.9-10.5-6.6z"/>
  </symbol>
  <symbol viewBox="0 0 448 512" id="linkedin" xmlns="http://www.w3.org/2000/svg">
  <path d="M416 32H31.9C14.3 32 0 46.5 0 64.3v383.4C0 465.5 14.3 480 31.9 480H416c17.6 0 32-14.5 32-32.3V64.3c0-17.8-14.4-32.3-32-32.3zM135.4 416H69V202.2h66.5V416zm-33.2-243c-21.3 0-38.5-17.3-38.5-38.5S80.9 96 102.2 96c21.2 0 38.5 17.3 38.5 38.5 0 21.3-17.2 38.5-38.5 38.5zm282.1 243h-66.4V312c0-24.8-.5-56.7-34.5-56.7-34.6 0-39.9 27-39.9 54.9V416h-66.4V202.2h63.7v29.2h.9c8.9-16.8 30.6-34.5 62.9-34.5 67.2 0 79.7 44.3 79.7 101.9V416z"/>
  </symbol>
  <symbol viewBox="0 0 448 512" id="linkedin-o" xmlns="http://www.w3.org/2000/svg">
  <path d="M100.28 448H7.4V148.9h92.88zM53.79 108.1C24.09 108.1 0 83.5 0 53.8a53.79 53.79 0 0 1 107.58 0c0 29.7-24.1 54.3-53.79 54.3zM447.9 448h-92.68V302.4c0-34.7-.7-79.2-48.29-79.2-48.29 0-55.69 37.7-55.69 76.7V448h-92.78V148.9h89.08v40.8h1.3c12.4-23.5 42.69-48.3 87.88-48.3 94 0 111.28 61.9 111.28 142.3V448z"/>
  </symbol>

  <view id="360-view" viewBox="0 0 35 35" />
  <view id="aligner-view" viewBox="0 36 35 35" />
  <view id="braces_1-view" viewBox="72 0 35 35" />
  <view id="why_us-view" viewBox="108 0 35 35" />
  <view id="appreciation-view" viewBox="0 36 35 35" />
  <view id="braces-vs-view" viewBox="36 36 35 35" />
  <view id="certificate-solid-view" viewBox="0 72 35 35" />
  <view id="comment-view" viewBox="36 72 35 35" />
  <view id="contact-view" viewBox="0 108 35 35" />
  <view id="home-solid-view" viewBox="36 108 35 35" />
  <view id="life-ring-view" viewBox="0 0 35 35" />
  <view id="link-solid-view" viewBox="36 144 35 35" />
  <view id="microsoft-view" viewBox="0 0 35 35" />
  <view id="mobile-alt-solid-view" viewBox="36 180 35 35" />
  <view id="news-view" viewBox="36 216 35 35" />
  <view id="paper-plane-view" viewBox="0 0 35 35" />
  <view id="poll-h-solid-view" viewBox="0 0 35 35" />
  <view id="quote-left-solid-view" viewBox="0 0 35 35" />
  <view id="quote-left-solid-view" viewBox="0 0 35 35" />
  <view id="quote-right-solid-view" viewBox="0 0 35 35" />
  <view id="record-solid-view" viewBox="0 0 35 35" />
  <view id="reel-view" viewBox="36 324 35 35" />
  <view id="steps-view" viewBox="0 360 35 35" />
  <view id="why-us-view" viewBox="36 360 35 35" />
  <view id="facebook-view" viewBox="0 396 35 35" />
  <view id="twitter-view" viewBox="36 396 35 35" />
  <view id="instagram-view" viewBox="0 432 35 35" />
  <view id="pinterest-view" viewBox="36 432 35 35" />
  <view id="youtube-view" viewBox="36 432 35 35" />
  <view id="envelope-view" viewBox="40 468 35 35" />
  <view id="whatsapp-view" viewBox="76 468 35 35" />
  <view id="linkedin-view" viewBox="112 468 35 35" />
  <view id="linkedin-o-view" viewBox="148 468 35 35" />

  <use xmlns="http://www.w3.org/2000/svg" xmlns:xlink="http://www.w3.org/1999/xlink" xlink:href="#360" width="35" height="35" x="0" y="0" id="360"/>
  <use xmlns="http://www.w3.org/2000/svg" xmlns:xlink="http://www.w3.org/1999/xlink" xlink:href="#braces_1" width="35" height="35" x="72" y="0" id="braces_1"/>
  <use xmlns="http://www.w3.org/2000/svg" xmlns:xlink="http://www.w3.org/1999/xlink" xlink:href="#aligner" width="35" height="35" x="36" y="0" id="aligner"/>
  <use xmlns="http://www.w3.org/2000/svg" xmlns:xlink="http://www.w3.org/1999/xlink" xlink:href="#why_us" width="35" height="35" x="108" y="0" id="why_us"/>
  <use xmlns="http://www.w3.org/2000/svg" xmlns:xlink="http://www.w3.org/1999/xlink" xlink:href="#appreciation" width="35" height="35" x="0" y="36" id="appreciation"/>
  <use xmlns="http://www.w3.org/2000/svg" xmlns:xlink="http://www.w3.org/1999/xlink" xlink:href="#appreciation" width="35" height="35" x="0" y="36" id="appreciation"/>
  <use xmlns="http://www.w3.org/2000/svg" xmlns:xlink="http://www.w3.org/1999/xlink" xlink:href="#braces-vs" width="35" height="35" x="36" y="36" id="braces-vs"/>
  <use xmlns="http://www.w3.org/2000/svg" xmlns:xlink="http://www.w3.org/1999/xlink" xlink:href="#certificate-solid" width="35" height="35" x="0" y="72" id="certificate-solid"/>
  <use xmlns="http://www.w3.org/2000/svg" xmlns:xlink="http://www.w3.org/1999/xlink" xlink:href="#comment" width="35" height="35" x="36" y="72" id="comment"/>
  <use xmlns="http://www.w3.org/2000/svg" xmlns:xlink="http://www.w3.org/1999/xlink" xlink:href="#contact" width="35" height="35" x="0" y="108" id="contact"/>
  <use xmlns="http://www.w3.org/2000/svg" xmlns:xlink="http://www.w3.org/1999/xlink" xlink:href="#home-solid" width="35" height="35" x="36" y="108" id="home-solid"/>
  <use xmlns="http://www.w3.org/2000/svg" xmlns:xlink="http://www.w3.org/1999/xlink" xlink:href="#life-ring" width="35" height="35" x="0" y="144" id="life-ring"/>
  <use xmlns="http://www.w3.org/2000/svg" xmlns:xlink="http://www.w3.org/1999/xlink" xlink:href="#link-solid" width="35" height="35" x="36" y="144" id="link-solid"/>
  <use xmlns="http://www.w3.org/2000/svg" xmlns:xlink="http://www.w3.org/1999/xlink" xlink:href="#microsoft" width="35" height="35" x="0" y="180" id="microsoft"/>
  <use xmlns="http://www.w3.org/2000/svg" xmlns:xlink="http://www.w3.org/1999/xlink" xlink:href="#mobile-alt-solid" width="35" height="35" x="36" y="180" id="mobile-alt-solid"/>
  <use xmlns="http://www.w3.org/2000/svg" xmlns:xlink="http://www.w3.org/1999/xlink" xlink:href="#news" width="35" height="35" x="36" y="216" id="news"/>
  <use xmlns="http://www.w3.org/2000/svg" xmlns:xlink="http://www.w3.org/1999/xlink" xlink:href="#paper-plane" width="35" height="35" x="0" y="252" id="paper-plane"/>
  <use xmlns="http://www.w3.org/2000/svg" xmlns:xlink="http://www.w3.org/1999/xlink" xlink:href="#poll-h-solid" width="35" height="35" x="36" y="252" id="poll-h-solid"/>
  <use xmlns="http://www.w3.org/2000/svg" xmlns:xlink="http://www.w3.org/1999/xlink" xlink:href="#quote-left-solid" width="35" height="35" x="0" y="288" id="quote-left-solid"/>
  <use xmlns="http://www.w3.org/2000/svg" xmlns:xlink="http://www.w3.org/1999/xlink" xlink:href="#quote-right-solid" width="35" height="35" x="36" y="288" id="quote-right-solid"/>
  <use xmlns="http://www.w3.org/2000/svg" xmlns:xlink="http://www.w3.org/1999/xlink" xlink:href="#record-solid" width="35" height="35" x="0" y="324" id="record-solid"/>
  <use xmlns="http://www.w3.org/2000/svg" xmlns:xlink="http://www.w3.org/1999/xlink" xlink:href="#reel" width="35" height="35" x="36" y="324" id="reel"/>
  <use xmlns="http://www.w3.org/2000/svg" xmlns:xlink="http://www.w3.org/1999/xlink" xlink:href="#steps" width="35" height="35" x="0" y="360" id="steps"/>
  <use xmlns="http://www.w3.org/2000/svg" xmlns:xlink="http://www.w3.org/1999/xlink" xlink:href="#why-us" width="35" height="35" x="36" y="360" id="why-us"/>
  <use xmlns="http://www.w3.org/2000/svg" xmlns:xlink="http://www.w3.org/1999/xlink" xlink:href="#facebook" width="35" height="35" x="0" y="396" id="facebook"/>
  <use xmlns="http://www.w3.org/2000/svg" xmlns:xlink="http://www.w3.org/1999/xlink" xlink:href="#twitter" width="35" height="35" x="36" y="396" id="twitter"/>
  <use xmlns="http://www.w3.org/2000/svg" xmlns:xlink="http://www.w3.org/1999/xlink" xlink:href="#instagram" width="35" height="35" x="0" y="432" id="instagram"/>
  <use xmlns="http://www.w3.org/2000/svg" xmlns:xlink="http://www.w3.org/1999/xlink" xlink:href="#pinterest" width="35" height="35" x="36" y="432" id="pinterest"/>
  <use xmlns="http://www.w3.org/2000/svg" xmlns:xlink="http://www.w3.org/1999/xlink" xlink:href="#youtube" width="35" height="35" x="0" y="468" id="youtube"/>
  <use xmlns="http://www.w3.org/2000/svg" xmlns:xlink="http://www.w3.org/1999/xlink" xlink:href="#envelope" width="30" height="30" x="40" y="468" id="envelope"/>
  <use xmlns="http://www.w3.org/2000/svg" xmlns:xlink="http://www.w3.org/1999/xlink" xlink:href="#whatsapp" width="30" height="30" x="76" y="468" id="whatsapp"/>
  <use xmlns="http://www.w3.org/2000/svg" xmlns:xlink="http://www.w3.org/1999/xlink" xlink:href="#linkedin" width="30" height="30" x="112" y="468" id="linkedin"/>
  <use xmlns="http://www.w3.org/2000/svg" xmlns:xlink="http://www.w3.org/1999/xlink" xlink:href="#linkedin-o" width="30" height="30" x="148" y="468" id="linkedin-o"/>

</svg>